<?xml version="1.0" encoding="UTF-8" standalone="no"?>
<!-- Created with Inkscape (http://www.inkscape.org/) -->

<svg
   xmlns:dc="http://purl.org/dc/elements/1.1/"
   xmlns:cc="http://creativecommons.org/ns#"
   xmlns:rdf="http://www.w3.org/1999/02/22-rdf-syntax-ns#"
   xmlns:svg="http://www.w3.org/2000/svg"
   xmlns="http://www.w3.org/2000/svg"
   xmlns:sodipodi="http://sodipodi.sourceforge.net/DTD/sodipodi-0.dtd"
   xmlns:inkscape="http://www.inkscape.org/namespaces/inkscape"
   width="272.13358mm"
   height="84.252083mm"
   viewBox="0 0 272.13358 84.252083"
   version="1.1"
   id="svg2126"
   inkscape:version="0.92.4 (5da689c313, 2019-01-14)"
   sodipodi:docname="Logo Ulule.svg">
  <defs
     id="defs2120">
    <clipPath
       clipPathUnits="userSpaceOnUse"
       id="clipPath574">
      <path
         d="m 1002.493,374.07599 h 96.92 v 96.92004 h -96.92 z"
         id="path572"
         inkscape:connector-curvature="0"
         style="clip-rule:evenodd" />
    </clipPath>
  </defs>
  <sodipodi:namedview
     id="base"
     pagecolor="#ffffff"
     bordercolor="#666666"
     borderopacity="1.0"
     inkscape:pageopacity="0.0"
     inkscape:pageshadow="2"
     inkscape:zoom="0.7"
     inkscape:cx="841.49293"
     inkscape:cy="68.114842"
     inkscape:document-units="mm"
     inkscape:current-layer="layer1"
     showgrid="false"
     inkscape:pagecheckerboard="true"
     fit-margin-top="0"
     fit-margin-left="0"
     fit-margin-right="0"
     fit-margin-bottom="0"
     inkscape:window-width="1920"
     inkscape:window-height="1001"
     inkscape:window-x="-9"
     inkscape:window-y="-9"
     inkscape:window-maximized="1" />
  <metadata
     id="metadata2123">
    <rdf:RDF>
      <cc:Work
         rdf:about="">
        <dc:format>image/svg+xml</dc:format>
        <dc:type
           rdf:resource="http://purl.org/dc/dcmitype/StillImage" />
        <dc:title></dc:title>
      </cc:Work>
    </rdf:RDF>
  </metadata>
  <g
     inkscape:label="Calque 1"
     inkscape:groupmode="layer"
     id="layer1"
     transform="translate(54.423936,-90.076337)">
    <g
       transform="matrix(2.4966384,0,0,2.4966384,-54.423936,89.744683)"
       id="g294" />
    <g
       transform="matrix(0.53682675,0,0,0.53682675,-54.423936,90.046629)"
       id="g296" />
    <g
       transform="matrix(0.53682675,0,0,0.53682675,-54.423936,90.046629)"
       id="g302" />
    <g
       transform="matrix(0.53682675,0,0,0.53682675,-54.423936,90.046629)"
       id="g308" />
    <g
       transform="matrix(0.53682675,0,0,0.53682675,-54.423936,90.046629)"
       id="g314" />
    <g
       transform="matrix(0.53682675,0,0,0.53682675,-54.423936,90.046629)"
       id="g320" />
    <g
       transform="matrix(0.53682675,0,0,0.53682675,-54.423936,90.046629)"
       id="g326" />
    <g
       transform="matrix(0.53682675,0,0,0.53682675,-54.423936,90.046629)"
       id="g332" />
    <g
       transform="matrix(0.53682675,0,0,0.53682675,-54.423936,90.046629)"
       id="g338" />
    <g
       transform="matrix(0.53682675,0,0,0.53682675,-54.423936,90.046629)"
       id="g344" />
    <g
       id="g346"
       transform="matrix(3.1199274,0,0,3.1199274,-249.16173,-154.92588)">
      <path
         inkscape:connector-curvature="0"
         id="path348"
         style="fill:#000000;fill-opacity:1;fill-rule:nonzero;stroke:none"
         d="m 103.7265,93.644792 c 0,1.834201 -0.89301,2.610208 -2.2093,2.610208 -1.31628,0 -2.211018,-0.776008 -2.211018,-2.610208 v -3.785405 c 2.71e-4,-0.09592 -0.03951,-0.187603 -0.109737,-0.252936 -0.07023,-0.06533 -0.164547,-0.09839 -0.260199,-0.09119 l -2.845935,0.252933 c -0.177184,0.01691 -0.312239,0.166139 -0.311435,0.344128 v 3.532471 c 0,3.926497 2.303935,5.90179 5.736604,5.90179 3.43268,0 5.73661,-1.997661 5.73661,-5.90179 v -4.473661 c 2.7e-4,-0.09592 -0.0395,-0.187601 -0.10974,-0.252934 -0.0702,-0.06533 -0.16454,-0.09839 -0.26019,-0.09119 l -2.84594,0.249492 c -0.17719,0.01691 -0.31224,0.16614 -0.31144,0.344128 l 0.002,4.224168 z m 22.23925,0 c 0,1.834201 -0.89301,2.610208 -2.2093,2.610208 -1.31628,0 -2.21102,-0.776008 -2.21102,-2.610208 v -5.731448 c 2.8e-4,-0.09592 -0.0395,-0.187604 -0.10973,-0.252936 -0.0702,-0.06533 -0.16455,-0.09839 -0.2602,-0.09119 l -2.84594,0.249493 c -0.17719,0.01691 -0.31224,0.166138 -0.31144,0.344127 v 5.481956 c 0,3.926497 2.30394,5.90179 5.73661,5.90179 3.43267,0 5.73661,-1.997661 5.73661,-5.90179 v -6.426586 c 2.7e-4,-0.09592 -0.0395,-0.187603 -0.10974,-0.252936 -0.0702,-0.06533 -0.16454,-0.09839 -0.2602,-0.09119 l -2.84593,0.247772 c -0.17719,0.01691 -0.31224,0.166139 -0.31143,0.344128 l 0.002,6.178814 z m 5.73489,2.068207 v 3.186622 c 0,0.190056 0.15407,0.344127 0.34413,0.344127 h 6.47648 c 0.19006,0 0.34413,-0.154071 0.34413,-0.344127 v -2.845937 c 0,-0.190056 -0.15407,-0.344127 -0.34413,-0.344127 h -3.2933 v -8.993778 c 2.7e-4,-0.09592 -0.0395,-0.187601 -0.10974,-0.252934 -0.0702,-0.06533 -0.16455,-0.09839 -0.2602,-0.09119 l -2.84594,0.249492 c -0.17718,0.01691 -0.31223,0.166139 -0.31143,0.344128 v 8.747727 z m -22.23925,0 v 3.186622 c 0,0.190056 0.15407,0.344127 0.34413,0.344127 h 6.47992 c 0.19006,0 0.34413,-0.154071 0.34413,-0.344127 v -2.845937 c 0,-0.190056 -0.15407,-0.344127 -0.34413,-0.344127 h -3.29674 v -7.054619 c 2.7e-4,-0.09592 -0.0395,-0.187603 -0.10973,-0.252936 -0.0702,-0.06533 -0.16455,-0.09839 -0.26021,-0.09119 l -2.84593,0.249492 c -0.17719,0.01691 -0.31224,0.166139 -0.31144,0.344128 z m 40.18035,-7.400467 v -2.85798 c 2.7e-4,-0.09592 -0.0395,-0.187602 -0.10974,-0.252934 -0.0702,-0.06533 -0.16454,-0.09839 -0.2602,-0.09119 l -8.07667,0.707182 c -0.17719,0.01691 -0.31224,0.166139 -0.31144,0.344128 v 12.732725 c 0,0.190056 0.15407,0.344128 0.34413,0.344128 h 8.08184 c 0.19006,0 0.34413,-0.154072 0.34413,-0.344128 v -2.840775 c 0,-0.190056 -0.15407,-0.344127 -0.34413,-0.344127 h -4.89694 v -1.909909 h 2.97327 c 0.19006,0 0.34412,-0.154071 0.34412,-0.344128 v -2.376201 c 0,-0.190057 -0.15406,-0.344128 -0.34412,-0.344128 h -2.97327 v -1.653534 l 4.91931,-0.430159 c 0.17454,-0.01754 0.30796,-0.163554 0.30971,-0.338966 z" />
    </g>
    <g
       transform="matrix(0.53682675,0,0,0.53682675,-54.423936,90.046629)"
       id="g350" />
    <g
       transform="matrix(0.90306874,0,0,0.90306874,-960.00347,-248.18567)"
       id="g568">
      <g
         id="g570"
         clip-path="url(#clipPath574)">
        <g
           id="g576"
           transform="matrix(0.69228595,0,0,0.69228595,1002.493,374.07599)">
          <path
             d="m 96.865997,105.612 c -11.983001,0 -22.375,-6.793 -27.548004,-16.736001 -0.316238,-0.622741 -0.82357,-0.934112 -1.522003,-0.934112 -0.698433,0 -1.205765,0.311371 -1.521996,0.934112 -5.172,9.943001 -15.564998,16.736001 -27.548,16.736001 -17.879,0 -32.2270011,-15.116997 -30.959999,-33.266999 1.0599995,-15.177002 13.269001,-27.510002 28.435001,-28.709999 13.294999,-1.049999 24.993,6.285999 30.39,17.278 -2.377999,2.714001 -3.832001,6.256996 -3.832001,10.150002 0,4.276001 1.749001,8.136001 4.556999,10.931999 0.32,0.313408 0.64,0.313408 0.959999,0 2.808998,-2.795998 4.557,-6.655998 4.557,-10.932999 0,-3.891998 -1.454003,-7.435001 -3.832001,-10.150001 5.397003,-10.989998 17.096,-18.327 30.389999,-17.276001 15.166999,1.199001 27.374999,13.531997 28.433999,28.709999 1.268,18.149002 -13.08,33.265999 -30.96,33.265999"
             style="fill:#ffffff;fill-opacity:1;fill-rule:nonzero;stroke:none"
             id="path578"
             inkscape:connector-curvature="0" />
          <path
             d="m 96.865997,105.612 c -11.983001,0 -22.375,-6.793 -27.548004,-16.736001 -0.316238,-0.622741 -0.82357,-0.934112 -1.522003,-0.934112 -0.698433,0 -1.205765,0.311371 -1.521996,0.934112 -5.172,9.943001 -15.564998,16.736001 -27.548,16.736001 -17.879,0 -32.2270011,-15.116997 -30.959999,-33.266999 1.0599995,-15.177002 13.269001,-27.510002 28.435001,-28.709999 13.294999,-1.049999 24.993,6.285999 30.39,17.278 -2.377999,2.714001 -3.832001,6.256996 -3.832001,10.150002 0,4.276001 1.749001,8.136001 4.556999,10.931999 0.32,0.313408 0.64,0.313408 0.959999,0 2.808998,-2.795998 4.557,-6.655998 4.557,-10.932999 0,-3.891998 -1.454003,-7.435001 -3.832001,-10.150001 5.397003,-10.989998 17.096,-18.327 30.389999,-17.276001 15.166999,1.199001 27.374999,13.531997 28.433999,28.709999 1.268,18.149002 -13.08,33.265999 -30.96,33.265999 M 134.355,29.136002 c -0.54851,-0.549593 -1.21102,-0.824391 -1.98751,-0.824391 -0.77647,0 -1.43898,0.274798 -1.9875,0.824391 L 125.76499,33.75 C 114.023,13.975 92.462997,0.713 67.795998,0.713 43.128998,0.713 21.57,13.975 9.8269997,33.75 L 5.2129998,29.136 C 4.6644044,28.586121 4.0017376,28.311789 3.2249999,28.313 2.4483857,28.311892 1.7855526,28.58596 1.2365006,29.135206 0.68744868,29.684454 0.41361514,30.347385 0.41499996,31.124001 v 36.970001 c 0,37.215008 30.16700104,67.382998 67.38099804,67.382998 37.214002,0 67.382012,-30.16799 67.382012,-67.381999 v -36.971 c 0,-0.718001 -0.275,-1.439 -0.823,-1.988001"
             style="fill:#000000;fill-opacity:1;fill-rule:nonzero;stroke:none"
             id="path580"
             inkscape:connector-curvature="0" />
          <path
             d="m 37.619999,50.382 c 6.77,0.650001 12.09,6.334 12.134998,13.277 0.048,7.418003 -5.924999,13.475003 -13.344002,13.524998 -7.42,0.05 -13.475999,-5.919998 -13.522998,-13.34 -0.05,-7.004002 5.28,-12.764 12.115001,-13.43 l 0.002,-0.022 c -10.298,0.681999 -18.413,9.261002 -18.344,19.718003 0.074,10.86 8.938,19.600998 19.791998,19.527999 10.860001,-0.074 19.598999,-8.933998 19.528,-19.795997 -0.07,-10.369999 -8.171001,-18.793999 -18.361,-19.459999"
             style="fill:#18a5d6;fill-opacity:1;fill-rule:nonzero;stroke:none"
             id="path582"
             inkscape:connector-curvature="0" />
          <path
             d="m 39.254002,52.807999 c 1.18,1.118999 1.959999,2.233001 1.949001,4.055 -0.01,2.625999 -2.231999,4.760002 -4.952999,4.771999 -2.597,-0.017 -4.791001,-2.222 -4.806999,-4.814998 -0.012,-2.119999 1.213001,-3.294998 1.872001,-3.925999 L 33.605007,52.612 c 0.743,-0.716 1.327999,-1.287999 1.397,-2.199002 -6.834,0.667 -12.165001,6.428002 -12.114001,13.430001 0.047,7.420001 6.103001,13.393001 13.523001,13.340999 7.420002,-0.05 13.392002,-6.106003 13.343998,-13.524002 -0.046,-6.945 -5.366001,-12.627998 -12.135002,-13.278999 l -0.106999,-0.004 c 0.07,0.809002 0.916001,1.68 1.740002,2.431"
             style="fill:#18a5d6;fill-opacity:1;fill-rule:nonzero;stroke:none"
             id="path584"
             inkscape:connector-curvature="0" />
          <path
             d="m 39.254002,52.807999 c 1.18,1.118999 1.959999,2.233001 1.949001,4.055 -0.01,2.625999 -2.231999,4.760002 -4.952999,4.771999 -2.597,-0.017 -4.791001,-2.222 -4.806999,-4.814998 -0.012,-2.119999 1.213001,-3.294998 1.872001,-3.925999 L 33.605007,52.612 c 0.743,-0.716 1.327999,-1.287999 1.397,-2.199002 -6.834,0.667 -12.165001,6.428002 -12.114001,13.430001 0.047,7.420001 6.103001,13.393001 13.523001,13.340999 7.420002,-0.05 13.392002,-6.106003 13.343998,-13.524002 -0.046,-6.945 -5.366001,-12.627998 -12.135002,-13.278999 l -0.106999,-0.004 c 0.07,0.809002 0.916001,1.68 1.740002,2.431"
             style="fill:#004e69;fill-opacity:1;fill-rule:nonzero;stroke:none"
             id="path586"
             inkscape:connector-curvature="0" />
          <path
             d="m 100.463,50.382999 0.002,0.018 c 6.89499,0.608002 12.289,6.396999 12.239,13.443001 -0.048,7.419998 -6.10401,13.391998 -13.524007,13.340004 -7.419998,-0.05 -13.390999,-6.107003 -13.344002,-13.525002 0.046,-6.937 5.357002,-12.616001 12.119003,-13.275001 -10.181999,0.673 -18.275001,9.095001 -18.345001,19.458 -0.07,10.861999 8.667,19.722 19.528,19.795997 10.853997,0.073 19.718997,-8.667999 19.792997,-19.527999 0.07,-10.5 -8.112,-19.105 -18.468,-19.726998"
             style="fill:#f01446;fill-opacity:1;fill-rule:nonzero;stroke:none"
             id="path588"
             inkscape:connector-curvature="0" />
          <path
             d="m 102.203,52.807999 c 1.18,1.118 1.959,2.231998 1.949,4.055 -0.01,2.625 -2.231,4.760002 -4.953003,4.771999 -2.597999,-0.018 -4.79,-2.222 -4.806999,-4.813999 -0.011,-2.119999 1.212998,-3.296001 1.871002,-3.927002 l 0.292,-0.283001 c 0.75,-0.723999 1.342003,-1.299 1.400002,-2.227001 -6.761002,0.658001 -12.072998,6.338001 -12.119003,13.275002 -0.047,7.417999 5.923996,13.473999 13.345001,13.525001 7.42,0.051 13.475,-5.919998 13.522,-13.34 0.051,-7.046001 -5.343,-12.836002 -12.237,-13.444 0.083,0.801998 0.919,1.665001 1.737,2.408001"
             style="fill:#f01446;fill-opacity:1;fill-rule:nonzero;stroke:none"
             id="path590"
             inkscape:connector-curvature="0" />
          <path
             d="m 102.203,52.807999 c 1.18,1.118 1.959,2.231998 1.949,4.055 -0.01,2.625 -2.231,4.760002 -4.953003,4.771999 -2.597999,-0.018 -4.79,-2.222 -4.806999,-4.813999 -0.011,-2.119999 1.212998,-3.296001 1.871002,-3.927002 l 0.292,-0.283001 c 0.75,-0.723999 1.342003,-1.299 1.400002,-2.227001 -6.761002,0.658001 -12.072998,6.338001 -12.119003,13.275002 -0.047,7.417999 5.923996,13.473999 13.345001,13.525001 7.42,0.051 13.475,-5.919998 13.522,-13.34 0.051,-7.046001 -5.343,-12.836002 -12.237,-13.444 0.083,0.801998 0.919,1.665001 1.737,2.408001"
             style="fill:#8b0020;fill-opacity:1;fill-rule:nonzero;stroke:none"
             id="path592"
             inkscape:connector-curvature="0" />
          <path
             d="m 97.972,50.382 -0.017,9.99e-4 h 0.017"
             style="fill:#ffffff;fill-opacity:1;fill-rule:nonzero;stroke:none"
             id="path594"
             inkscape:connector-curvature="0" />
        </g>
      </g>
    </g>
  </g>
</svg>
